<?xml version="1.0" encoding="UTF-8"?>
<svg width="74px" height="74px" viewBox="0 0 74 74" version="1.1" xmlns="http://www.w3.org/2000/svg" xmlns:xlink="http://www.w3.org/1999/xlink">
    <!-- Generator: Sketch 60.1 (88133) - https://sketch.com -->
    <title>Group 4</title>
    <desc>Created with Sketch.</desc>
    <g id="Page-1" stroke="none" stroke-width="1" fill="none" fill-rule="evenodd">
        <g id="Home" transform="translate(-976.000000, -879.000000)">
            <g id="Group-4" transform="translate(977.421875, 880.000000)">
                <circle id="Oval" stroke="#907E63" stroke-width="2" fill="#907E63" cx="35.578125" cy="35.578125" r="35.578125"></circle>
                <path d="M23.578125,50.5910896 L23.578125,21.9763791 C23.578125,21.5560161 23.878125,21.0956185 24.479125,20.5951864 C25.078125,20.0947542 25.889125,19.6143393 26.908125,19.1529409 C27.928125,18.6925433 29.219125,18.3132158 30.779125,18.0129565 C32.338125,17.7126972 33.968125,17.5625675 35.668125,17.5625675 C37.367125,17.5625675 38.988125,17.7126972 40.529125,18.0129565 C42.069125,18.3132158 43.338125,18.6925433 44.338125,19.1529409 C45.338125,19.6143393 46.128125,20.0947542 46.708125,20.5951864 C47.288125,21.0956185 47.578125,21.5560161 47.578125,21.9763791 L47.578125,50.5910896 C47.578125,51.4117983 47.283125,52.1174076 46.694125,52.7079176 C46.104125,53.2984275 45.399125,53.5936825 44.578125,53.5936825 L26.578125,53.5936825 C25.758125,53.5936825 25.053125,53.2984275 24.463125,52.7079176 C23.873125,52.1174076 23.578125,51.4117983 23.578125,50.5910896 C23.578125,50.5910896 23.578125,51.4117983 23.578125,50.5910896 L23.578125,50.5910896 L23.578125,50.5910896 Z M26.578125,44.5859037 L44.578125,44.5859037 L44.578125,23.5677533 L26.578125,23.5677533 L26.578125,23.5677533 L26.578125,44.5859037 L26.578125,44.5859037 Z M33.373125,51.2966989 C33.983125,51.9072261 34.718125,52.2124897 35.578125,52.2124897 C36.438125,52.2124897 37.173125,51.9072261 37.783125,51.2966989 C38.393125,50.6851708 38.698125,49.9505364 38.698125,49.0897931 C38.698125,48.2290498 38.393125,47.4934145 37.783125,46.8818865 C37.173125,46.2723601 36.438125,45.9660956 35.578125,45.9660956 C34.718125,45.9660956 33.983125,46.2723601 33.373125,46.8818865 C32.763125,47.4934145 32.458125,48.2290498 32.458125,49.0897931 C32.458125,49.9505364 32.763125,50.6851708 33.373125,51.2966989 L33.373125,51.2966989 Z" id="Fill-138" fill="#FFFFFF"></path>
            </g>
        </g>
    </g>
</svg>
