<?xml version="1.0" encoding="UTF-8"?>
<svg width="74px" height="74px" viewBox="0 0 74 74" version="1.1" xmlns="http://www.w3.org/2000/svg" xmlns:xlink="http://www.w3.org/1999/xlink">
    <!-- Generator: Sketch 60.1 (88133) - https://sketch.com -->
    <title>Group 3</title>
    <desc>Created with Sketch.</desc>
    <g id="Page-1" stroke="none" stroke-width="1" fill="none" fill-rule="evenodd">
        <g id="Home" transform="translate(-641.000000, -931.000000)">
            <g id="Group-3" transform="translate(642.421875, 932.000000)">
                <circle id="Oval-Copy" stroke="#907E63" stroke-width="2" fill="#907E63" cx="35.578125" cy="35.578125" r="35.578125"></circle>
                <path d="M27.5512794,21.7129077 C30.0040758,20.2807985 32.679691,19.5642961 35.578125,19.5642961 C38.4774539,19.5642961 41.1530691,20.2807985 43.6049706,21.7129077 C46.0568722,23.1468082 47.9987067,25.090321 49.430474,27.5443417 C50.8622413,29.9983625 51.578125,32.6753946 51.578125,35.578125 C51.578125,38.4799598 50.8622413,41.1578875 49.430474,43.6110126 C47.9987067,46.065929 46.0568722,48.0094418 43.6049706,49.441551 C41.1530691,50.8754515 38.4774539,51.5919539 35.578125,51.5919539 C32.679691,51.5919539 30.0040758,50.8754515 27.5512794,49.441551 C25.0993778,48.0094418 23.1575433,46.065929 21.7266709,43.6110126 C20.2940087,41.1578875 19.578125,38.4799598 19.578125,35.578125 C19.578125,32.6753946 20.2940087,29.9983625 21.7266709,27.5443417 C23.1575433,25.090321 25.0993778,23.1468082 27.5512794,21.7129077 C27.5512794,21.7129077 25.0993778,23.1468082 27.5512794,21.7129077 L27.5512794,21.7129077 L27.5512794,21.7129077 Z M43.430474,27.7180936 C41.2559773,25.5426131 38.6385277,24.4544251 35.578125,24.4544251 C32.5177223,24.4544251 29.9002727,25.5426131 27.7266709,27.7180936 C25.5512794,29.8953653 24.464031,32.5150772 24.464031,35.578125 C24.464031,38.6590854 25.5512794,41.2832754 27.7266709,43.4506952 C29.9002727,45.618115 32.5177223,46.7018249 35.578125,46.7018249 C38.6385277,46.7018249 41.2559773,45.618115 43.430474,43.4506952 C45.6049706,41.2832754 46.692219,38.6590854 46.692219,35.578125 C46.692219,32.5150772 45.6049706,29.8953653 43.430474,27.7180936 C43.430474,27.7180936 45.6049706,29.8953653 43.430474,27.7180936 L43.430474,27.7180936 L43.430474,27.7180936 Z M27.8072078,32.9584131 C28.0837178,32.6798728 28.4282369,32.541946 28.83987,32.541946 C29.2523979,32.541946 29.6004964,32.6852465 29.8868498,32.9718475 C30.1732033,33.2584484 30.31638,33.5987871 30.31638,33.9919678 C30.31638,34.4048523 30.1732033,34.7541472 29.8868498,35.0398526 C29.6004964,35.3264535 29.2523979,35.4706496 28.83987,35.4706496 C28.4461339,35.4706496 28.1060892,35.3264535 27.8197357,35.0398526 C27.5333823,34.7541472 27.3911004,34.4048523 27.3911004,33.9919678 C27.3911004,33.5808745 27.528908,33.2351621 27.8072078,32.9584131 C27.8072078,32.9584131 27.528908,33.2351621 27.8072078,32.9584131 L27.8072078,32.9584131 L27.8072078,32.9584131 Z M31.793785,27.2747577 C32.1866261,27.2747577 32.5266709,27.4189538 32.8130243,27.7055548 C33.0993778,27.9921557 33.2425545,28.3414507 33.2425545,28.7534395 C33.2425545,29.1654284 33.0993778,29.5147234 32.8130243,29.8004287 C32.5266709,30.0879253 32.1866261,30.2312258 31.793785,30.2312258 C31.381257,30.2312258 31.0322637,30.0834471 30.7468051,29.7878899 C30.4595568,29.4923327 30.31638,29.1475159 30.31638,28.7534395 C30.31638,28.3593632 30.4595568,28.0136508 30.7468051,27.7180936 C31.0322637,27.4225363 31.381257,27.2747577 31.793785,27.2747577 C31.793785,27.2747577 31.381257,27.2747577 31.793785,27.2747577 L31.793785,27.2747577 L31.793785,27.2747577 Z M38.5857313,29.5326359 L38.611682,29.5048714 C38.4506082,29.2549912 38.3700713,29.0042154 38.3700713,28.7534395 C38.3700713,28.3593632 38.513248,28.0136508 38.8004964,27.7180936 C39.085955,27.4225363 39.4349483,27.2747577 39.8474762,27.2747577 C40.2403174,27.2747577 40.5803621,27.4189538 40.8667156,27.7055548 C41.1530691,27.9921557 41.2962458,28.3414507 41.2962458,28.7534395 C41.2962458,29.1654284 41.1530691,29.5147234 40.8667156,29.8004287 C40.5803621,30.0879253 40.2403174,30.2312258 39.8474762,30.2312258 C39.5951272,30.2312258 39.3365143,30.1407673 39.0680579,29.9616417 L37.5915478,33.8585192 C37.8957984,34.2525955 38.0488185,34.7093658 38.0488185,35.2288301 C38.0488185,35.8736822 37.8197357,36.4244935 37.3633599,36.8812638 C36.9078789,37.338034 36.3566485,37.5655236 35.7123532,37.5655236 C35.0689527,37.5655236 34.5186172,37.338034 34.0622413,36.8812638 C33.6049706,36.4244935 33.3767827,35.8736822 33.3767827,35.2288301 C33.3767827,34.6547325 33.5602279,34.1495983 33.9271183,33.7107406 C34.2949035,33.2709872 34.7548588,33.0076726 35.3096686,32.9181098 L38.5857313,29.5326359 L38.5857313,29.5326359 L38.5857313,29.5326359 L38.5857313,29.5326359 Z M41.4850601,32.9718475 C41.7705187,32.6852465 42.119512,32.541946 42.53204,32.541946 C42.9427782,32.541946 43.2864024,32.6798728 43.5647022,32.9584131 C43.843002,33.2351621 43.9808096,33.5808745 43.9808096,33.9919678 C43.9808096,34.4048523 43.8376328,34.7541472 43.5512794,35.0398526 C43.2649259,35.3264535 42.9248812,35.4706496 42.53204,35.4706496 C42.119512,35.4706496 41.7705187,35.3264535 41.4850601,35.0398526 C41.1978118,34.7541472 41.0546351,34.4048523 41.0546351,33.9919678 C41.0546351,33.5987871 41.1978118,33.2584484 41.4850601,32.9718475 L41.4850601,32.9718475 Z" id="Fill-135" fill="#FFFFFF"></path>
            </g>
        </g>
    </g>
</svg>
