<?xml version="1.0" encoding="UTF-8"?>
<svg width="74px" height="74px" viewBox="0 0 74 74" version="1.1" xmlns="http://www.w3.org/2000/svg" xmlns:xlink="http://www.w3.org/1999/xlink">
    <!-- Generator: Sketch 60.1 (88133) - https://sketch.com -->
    <title>Group</title>
    <desc>Created with Sketch.</desc>
    <g id="Page-1" stroke="none" stroke-width="1" fill="none" fill-rule="evenodd">
        <g id="Home" transform="translate(-303.000000, -931.000000)">
            <g id="Group" transform="translate(304.000000, 932.000000)">
                <circle id="Oval-Copy-2" stroke="#907E63" stroke-width="2" fill="#907E63" cx="35.578125" cy="35.578125" r="35.578125"></circle>
                <path d="M51.578125,32.9091535 L51.578125,38.2470965 L46.1647917,38.2470965 C45.7212361,40.0619971 44.6847917,41.7167594 43.058125,43.2113834 C41.4314583,44.7060075 39.8279028,45.7469063 38.2447917,46.3340801 L38.2447917,51.5919539 L32.9114583,51.5919539 L32.9114583,46.3340801 C30.4225694,45.8536652 28.5736806,44.9417666 27.3647917,43.5983843 C26.1559028,42.255002 25.2847917,40.472129 24.7523472,38.2470965 L19.578125,38.2470965 L19.578125,32.9091535 L24.7523472,32.9091535 C25.018125,31.8415649 25.3390139,30.9118732 25.7123472,30.1200783 C26.0856806,29.3282835 26.578125,28.5631783 27.1923472,27.8247629 C27.8047917,27.0863474 28.5870139,26.472484 29.538125,25.9831725 C30.4892361,25.4938611 31.6136806,25.1335499 32.9114583,24.9022391 L32.9114583,19.5642961 L38.2447917,19.5642961 L38.2447917,24.9022391 C39.2047917,25.258102 40.2092361,25.7927859 41.258125,26.503622 C42.3079028,27.2153477 43.3079028,28.153936 44.258125,29.3193869 C45.2092361,30.4848378 45.8447917,31.6814266 46.1647917,32.9091535 L51.578125,32.9091535 L51.578125,32.9091535 L51.578125,32.9091535 L51.578125,32.9091535 Z M38.2447917,38.2470965 L38.2447917,43.7451777 C40.8936806,42.8911068 42.6812361,41.0584131 43.6056806,38.2470965 L38.2447917,38.2470965 L38.2447917,32.9091535 L43.578125,32.9091535 C43.1336806,31.5924609 42.4590139,30.458148 41.5514583,29.5062149 C40.6456806,28.5551714 39.5425694,27.873694 38.2447917,27.4644517 L38.2447917,32.9091535 L32.9114583,32.9091535 L32.9114583,27.4911414 C31.578125,27.9181769 30.4225694,28.6085508 29.4447917,29.5595943 C28.4670139,30.5115275 27.7647917,31.6280472 27.3390139,32.9091535 L32.9114583,32.9091535 L32.9114583,38.2470965 L27.3123472,38.2470965 C27.738125,39.5459959 28.4447917,40.6803088 29.4314583,41.6500351 C30.4190139,42.6206511 31.578125,43.3181423 32.9114583,43.7451777 L32.9114583,38.2470965 L38.2447917,38.2470965 L38.2447917,38.2470965 Z" id="Fill-89" fill="#FFFFFF"></path>
            </g>
        </g>
    </g>
</svg>
