<?xml version="1.0" encoding="UTF-8"?>
<svg width="56px" height="99px" viewBox="0 0 56 99" version="1.1" xmlns="http://www.w3.org/2000/svg" xmlns:xlink="http://www.w3.org/1999/xlink">
    <title>Group 8</title>
    <defs>
        <linearGradient x1="20.2865141%" y1="0%" x2="68.9087848%" y2="100%" id="linearGradient-1">
            <stop stop-color="#907E63" offset="0%"></stop>
            <stop stop-color="#6C5736" offset="78.1367914%"></stop>
            <stop stop-color="#6B5535" offset="100%"></stop>
            <stop stop-color="#695332" offset="100%"></stop>
        </linearGradient>
    </defs>
    <g id="Page-1" stroke="none" stroke-width="1" fill="none" fill-rule="evenodd">
        <g id="Home-Copy-10" transform="translate(-1143.000000, 0.000000)">
            <g id="Group-8" transform="translate(1143.000000, 0.000000)">
                <path d="M0,0 L56,0 L56,69 C36.4583333,89 26.6875,99 26.6875,99 C26.6875,99 17.7916667,89 0,69 L0,0 Z" id="Rectangle-Copy-2" fill="url(#linearGradient-1)"></path>
                <path d="M36.5625,57.1884921 L36.5625,58.9722222 L18.4375,58.9722222 L18.4375,57.1884921 L36.5625,57.1884921 Z M38.375,39.3511905 L36.5625,53.6210317 L36.5625,55.4047619 L34.75,55.404 L34.75,53.3333333 L34.743347,53.1943205 C34.6640556,52.369611 33.8858311,51.7222222 32.9375,51.7222222 C31.9891689,51.7222222 31.2109444,52.369611 31.131653,53.1943205 L31.131653,53.1943205 L31.125,53.3333333 L31.125,55.404 L29.312,55.404 L29.3125,53.3333333 L29.305847,53.1943205 C29.2265556,52.369611 28.4483311,51.7222222 27.5,51.7222222 C26.5516689,51.7222222 25.7734444,52.369611 25.694153,53.1943205 L25.694153,53.1943205 L25.6875,53.3333333 L25.687,55.404 L23.875,55.404 L23.875,53.3333333 L23.868347,53.1943205 C23.7890556,52.369611 23.0108311,51.7222222 22.0625,51.7222222 C21.1141689,51.7222222 20.3359444,52.369611 20.256653,53.1943205 L20.256653,53.1943205 L20.25,53.3333333 L20.25,55.404 L18.4375,55.4047619 L18.4375,53.6210317 L16.625,39.3511905 L24.479,49.657 L27.5,44.702381 L30.521,49.657 L38.375,39.3511905 Z M27.5,39.3511905 C28.5010161,39.3511905 29.3125,40.1497937 29.3125,41.1349206 C29.3125,42.1200476 28.5010161,42.9186508 27.5,42.9186508 C26.4989839,42.9186508 25.6875,42.1200476 25.6875,41.1349206 C25.6875,40.1497937 26.4989839,39.3511905 27.5,39.3511905 Z M14.8125,34 C15.8135161,34 16.625,34.7986032 16.625,35.7837302 C16.625,36.7688571 15.8135161,37.5674603 14.8125,37.5674603 C13.8114839,37.5674603 13,36.7688571 13,35.7837302 C13,34.7986032 13.8114839,34 14.8125,34 Z M40.1875,34 C41.1885161,34 42,34.7986032 42,35.7837302 C42,36.7688571 41.1885161,37.5674603 40.1875,37.5674603 C39.1864839,37.5674603 38.375,36.7688571 38.375,35.7837302 C38.375,34.7986032 39.1864839,34 40.1875,34 Z" id="Combined-Shape-Copy" fill="#FFFFFF"></path>
            </g>
        </g>
    </g>
</svg>