<?xml version="1.0" encoding="UTF-8"?>
<svg width="252px" height="188px" viewBox="0 0 252 188" version="1.1" xmlns="http://www.w3.org/2000/svg" xmlns:xlink="http://www.w3.org/1999/xlink">
    <title>Group 7</title>
    <defs>
        <linearGradient x1="0%" y1="11.9173554%" x2="100%" y2="117.407025%" id="linearGradient-1">
            <stop stop-color="#907E63" offset="0%"></stop>
            <stop stop-color="#695332" offset="100%"></stop>
        </linearGradient>
    </defs>
    <g id="Page-1" stroke="none" stroke-width="1" fill="none" fill-rule="evenodd">
        <g id="Home-Copy-10" transform="translate(-558.000000, -186.000000)">
            <g id="Group-7" transform="translate(558.000000, 186.000000)">
                <path d="M91.244186,187.349592 C93.0581395,186.397978 93.6511628,184.664682 93.8255814,182.761455 C93.8953488,181.877814 93.9302326,180.994173 93.9302326,180.110532 C93.9651163,178.343249 94,176.541981 94,174.774699 C94,171.953844 93.9651163,169.438865 93.8255814,168.419279 C93.7209302,167.671583 93.372093,165.530453 91.0697674,164.544853 C89.997093,164.086039 88.8851744,164.00957 87.7634448,164.000012 L82,164.001074 L82,187.99533 L86.6046512,187.99533 C88.1395349,187.99533 89.7790698,188.097288 91.244186,187.349592 Z M87.0591716,185.000012 L85,185.000012 L85,166.000012 L87.3639906,166.000012 C88.3096647,166.012019 89.3865878,166.108076 90.0769231,166.729445 C90.8224852,167.458878 90.8934911,168.466191 90.964497,170.411346 C91,172.425971 91,174.440597 91,176.455222 C91,179.26875 90.964497,181.839134 90.7869822,182.776977 C90.5384615,183.957964 90.0769231,184.340048 89.5443787,184.617927 C88.7633136,185.000012 87.8402367,184.965277 87.0591716,185.000012 Z M102,188.000012 L102,164.000012 L99,164.000012 L99,188.000012 L102,188.000012 Z M113.059829,187.998926 C114.769231,188.033312 116,187.242425 116.512821,186.864175 C116.888889,186.554697 117.094017,186.348379 117.470085,185.970129 L117.470085,187.655062 L120,187.655062 L120,175.104031 L113.641026,175.104031 L113.641026,177.717396 L117.196581,177.717396 L117.196581,180.193216 C117.162393,181.843762 117.094017,183.047286 116.854701,183.666241 C116.615385,184.216423 116.239316,184.594673 116.068376,184.732219 C115.213675,185.488719 114.25641,185.523106 113.880342,185.523106 C112.820513,185.523106 111.931624,185.076083 111.452991,184.078878 C111.179487,183.459923 111.179487,182.840968 111.111111,181.465512 C111.042735,180.090057 111.008547,178.748988 111.008547,177.373532 L111.008547,174.45069 C111.076923,171.321528 111.111111,168.708163 111.350427,167.573412 C111.452991,167.092003 111.623932,166.748139 111.726496,166.610594 C111.82906,166.473048 112.034188,166.26673 112.34188,166.060411 C113.094017,165.544616 113.91453,165.544616 114.222222,165.544616 C116.752137,165.544616 116.888889,167.367094 116.923077,168.364299 L116.957265,169.602209 L116.957265,169.602209 L116.957265,170.805733 L119.794872,170.805733 L119.794872,169.086413 C119.794872,167.573412 119.794872,166.885685 119.589744,166.163571 C119.418803,165.579002 119.145299,165.097593 118.769231,164.65057 C118.632479,164.478638 118.393162,164.203547 117.982906,163.928456 C117.264957,163.447046 116.102564,163.000012 114.153846,163.000012 C113.059829,163.000012 109.57265,162.965637 108.478632,166.64498 C108.102564,167.951663 108.102564,170.289937 108.102564,170.427482 C108.034188,172.146802 108,173.866121 108,175.58544 C108,176.892123 108.034188,178.164419 108.034188,179.436715 C108.102564,182.15324 108.068376,183.322377 108.478632,184.663446 C109.401709,187.655062 112,187.998926 113.059829,187.998926 Z M129,188.000012 L129,164.000012 L126,164.000012 L126,188.000012 L129,188.000012 Z M139.470423,188.000012 L139.470423,166.685564 L144,166.685564 L144,164.000012 L132,164.000012 L132,166.685564 L136.529577,166.685564 L136.529577,188.000012 L139.470423,188.000012 Z M147.217172,188.000012 L148.065657,183.376782 L153.863636,183.376782 L154.747475,188.000012 L158,188.000012 L152.484848,164.000012 L149.373737,164.000012 L144,188.000012 L147.217172,188.000012 Z M153,180.000012 L148,180.000012 L150.425373,168.000012 L153,180.000012 Z M171,188.000012 L171,185.314459 L164.030303,185.314459 L164.030303,164.000012 L161,164.000012 L161,188.000012 L171,188.000012 Z" id="DIGITAL-Copy-2" fill="#907E63" fill-rule="nonzero"></path>
                <path d="M143.6875,44.5714286 L143.6875,48 L109.3125,48 L109.3125,44.5714286 L143.6875,44.5714286 Z M147.125,10.2857143 L143.6875,37.7142857 L143.6875,41.1428571 L141,41.142 L141,37.3333333 L140.994821,37.1504427 C140.895126,35.3945501 139.368563,34 137.5,34 C135.631437,34 134.104874,35.3945501 134.005179,37.1504427 L134.005179,37.1504427 L134,37.3333333 L134,41.142 L130.5,41.142 L130.5,37.3333333 L130.494821,37.1504427 C130.395126,35.3945501 128.868563,34 127,34 C125.131437,34 123.604874,35.3945501 123.505179,37.1504427 L123.505179,37.1504427 L123.5,37.3333333 L123.5,41.142 L120,41.142 L120,37.3333333 L119.994821,37.1504427 C119.895126,35.3945501 118.368563,34 116.5,34 C114.631437,34 113.104874,35.3945501 113.005179,37.1504427 L113.005179,37.1504427 L113,37.3333333 L113,41.142 L109.3125,41.1428571 L109.3125,37.7142857 L105.875,10.2857143 L120.771,30.095 L126.5,20.5714286 L132.229,30.095 L147.125,10.2857143 Z M126.5,10.2857143 C128.398479,10.2857143 129.9375,11.820738 129.9375,13.7142857 C129.9375,15.6078334 128.398479,17.1428571 126.5,17.1428571 C124.601521,17.1428571 123.0625,15.6078334 123.0625,13.7142857 C123.0625,11.820738 124.601521,10.2857143 126.5,10.2857143 Z M102.4375,0 C104.335979,0 105.875,1.53502371 105.875,3.42857143 C105.875,5.32211914 104.335979,6.85714286 102.4375,6.85714286 C100.539021,6.85714286 99,5.32211914 99,3.42857143 C99,1.53502371 100.539021,0 102.4375,0 Z M150.5625,0 C152.460979,0 154,1.53502371 154,3.42857143 C154,5.32211914 152.460979,6.85714286 150.5625,6.85714286 C148.664021,6.85714286 147.125,5.32211914 147.125,3.42857143 C147.125,1.53502371 148.664021,0 150.5625,0 Z" id="Combined-Shape" fill="url(#linearGradient-1)"></path>
                <path d="M30.477054,133.856164 C32.3866439,131.59589 33.3796306,128.657534 33.3796306,122.780822 C33.3796306,117.431507 33.2268634,115.09589 31.622808,112.760274 C30.0951361,110.575342 27.9563954,109.821918 25.4357368,109.068493 C26.4287236,108.691781 30.1715197,107.712329 31.6991915,104.246575 C32.5394111,102.438356 32.6921783,100.328767 32.6921783,96.260274 C32.6921783,92.1917808 32.2338767,88.7260274 28.5674642,86.3150685 C25.2829696,84.2054795 21.4637899,84.0547945 17.7209938,84.0547945 L-7.42517159e-13,84.0547945 L-7.42517159e-13,137.246575 L20.0125017,137.246575 C23.908065,137.246575 27.7272447,137.09589 30.477054,133.856164 Z M17.5682266,104.849315 L12.2213751,104.849315 L12.2213751,93.4726027 L17.1863087,93.4726027 C18.3320626,93.4726027 20.5471868,93.4726027 21.0054884,96.5616438 C21.1582556,97.6917808 21.1582556,98.6712329 21.1582556,99.0479452 C21.1582556,100.780822 21.3110228,104.020548 18.9431313,104.69863 C18.4848298,104.773973 18.0265282,104.849315 17.5682266,104.849315 Z M17.2626923,127.678082 L12.2213751,127.678082 L12.2213751,114.191781 L17.2626923,114.191781 C18.4848298,114.267123 19.7833509,114.342466 20.5471868,115.472603 C21.3874063,116.527397 21.3874063,118.260274 21.3874063,121.19863 C21.3874063,123.308219 21.6165571,126.472603 19.0958985,127.376712 C18.4848298,127.60274 17.9501446,127.60274 17.2626923,127.678082 Z M49.8603547,137.246575 L51.7699445,125.116438 L61.7761954,125.116438 L63.6094016,137.246575 L76.3654618,137.246575 L65.4426079,84.0547945 L48.0271484,84.0547945 L37.1042945,137.246575 L49.8603547,137.246575 Z M60.4776743,116.150685 L53.2212328,116.150685 L56.8876453,92.4931507 L60.4776743,116.150685 Z M95.9483173,138 C103.204759,138 106.794788,136.568493 109.239063,134.232877 C112.523557,131.143836 112.981859,127.226027 112.981859,123.082192 C112.981859,117.356164 111.988872,115.020548 109.850131,112.910959 C108.32246,111.40411 106.64202,110.349315 106.030952,109.972603 L94.9553305,102.363014 C94.0387274,101.684932 93.5804258,101.308219 93.2748915,100.856164 C92.4346719,99.7260274 92.5110555,98.369863 92.5110555,96.9383562 C92.5110555,95.5821918 92.3582883,93.6986301 93.6568094,92.7945205 C94.497029,92.1917808 95.3372485,92.1917808 95.7191665,92.1917808 C97.9342907,92.1917808 99.0800446,92.869863 99.3091954,95.0547945 C99.3091954,95.5821918 99.385579,96.109589 99.385579,96.6369863 L99.385579,100.40411 L111.683338,100.40411 C111.759721,96.6369863 111.988872,92.4178082 110.384817,88.8767123 C109.544597,87.0684932 108.016925,84.7328767 103.586677,83.7534247 C101.142402,83.2260274 98.9272774,83.0753425 96.4830024,83.0753425 C93.4276587,83.0753425 89.1501774,83.3767123 86.2476008,84.6575342 C80.8243656,86.9931507 80.2132969,91.9657534 79.9841461,93.8493151 C79.6786117,95.9589041 79.6786117,97.6164384 79.6786117,98.4452055 C79.6786117,104.171233 80.9771328,106.431507 83.1922571,108.465753 C84.4907782,109.59589 85.8656828,110.5 87.2405875,111.479452 L95.0317141,117.054795 C97.323222,118.712329 98.6217431,119.616438 99.3091954,120.746575 C99.8438806,121.650685 99.9202642,122.780822 99.9202642,124.965753 C99.9202642,126.623288 99.4619626,128.657534 95.7955501,128.657534 C92.1773798,128.657534 91.9869498,125.952719 91.9769272,124.643019 L91.9763704,120.219178 L79.067543,120.219178 C78.9911594,121.349315 78.9911594,122.479452 78.9911594,123.609589 C78.9911594,126.39726 79.1439266,129.486301 80.5188313,132.047945 C82.6575719,135.815068 87.3169711,138 95.9483173,138 Z M139.105048,137.246575 L139.105048,93.3219178 L149.875135,93.3219178 L149.875135,84.0547945 L115.196983,84.0547945 L115.196983,93.3219178 L125.890686,93.3219178 L125.890686,137.246575 L139.105048,137.246575 Z M167.596129,137.246575 L167.596129,84.0547945 L154.534534,84.0547945 L154.534534,137.246575 L167.596129,137.246575 Z M192.420797,137.924658 C200.517458,137.924658 204.336637,135.739726 206.780912,132.575342 C209.435901,129.083609 209.598659,125.240695 209.606726,121.046601 L209.607105,100.253425 C209.607105,97.4657534 209.607105,94.7534247 208.690502,92.0410959 C207.697515,89.1780822 206.017076,87.5205479 205.100473,86.6917808 C201.434061,83.5273973 196.774661,83 192.115262,83 C186.310109,83 180.58134,83.9041096 177.067694,89.0273973 C174.85257,92.2671233 174.699803,95.2808219 174.547036,99.0479452 L174.547036,120.972603 C174.623419,125.568493 174.928954,127.60274 175.845557,129.787671 C176.76216,132.123288 178.289832,133.554795 178.977284,134.157534 C182.796464,137.472603 187.532247,137.924658 192.420797,137.924658 Z M192.115262,128.582192 C187.532247,128.582192 187.60863,126.171233 187.685014,124.061644 L187.685014,96.7876712 C187.685014,96.6369863 187.455863,93.8493151 189.289069,92.9452055 C190.282056,92.4178082 191.656961,92.4931507 191.886111,92.4931507 C193.795701,92.4931507 195.858058,92.6438356 196.469127,94.9041096 C196.621894,95.5068493 196.621894,95.6575342 196.621894,96.7876712 L196.621894,124.061644 C196.621894,125.643836 196.469127,127.30137 194.788688,128.130137 C193.795701,128.582192 192.344413,128.582192 192.115262,128.582192 Z M227.633633,137.246575 L227.633633,102.589041 L238.862022,137.246575 L252,137.246575 L252,84.0547945 L240.847995,84.0547945 L240.847995,118.561644 L229.543223,84.0547945 L216.634396,84.0547945 L216.634396,137.246575 L227.633633,137.246575 Z" id="Combined-Shape-Copy-15" fill="#FFFFFF" fill-rule="nonzero"></path>
            </g>
        </g>
    </g>
</svg>